<mxfile host="app.diagrams.net" modified="2020-09-09T15:18:08.995Z" agent="5.0 (Macintosh; Intel Mac OS X 10_15_6) AppleWebKit/537.36 (KHTML, like Gecko) Chrome/85.0.4183.83 Safari/537.36" etag="UXjwKKWbHenYgsQi5V0U" version="13.6.6" type="github">
  <diagram name="Page-1" id="c7558073-3199-34d8-9f00-42111426c3f3">
    <mxGraphModel dx="946" dy="623" grid="1" gridSize="10" guides="1" tooltips="1" connect="1" arrows="1" fold="1" page="1" pageScale="1" pageWidth="826" pageHeight="1169" background="#ffffff" math="0" shadow="0">
      <root>
        <mxCell id="0" />
        <mxCell id="1" parent="0" />
        <mxCell id="qYgBSLJ2pyyqtFKy0n8X-96" value="Actor" style="shape=umlActor;verticalLabelPosition=bottom;verticalAlign=top;html=1;outlineConnect=0;" vertex="1" parent="1">
          <mxGeometry x="60" y="120" width="30" height="60" as="geometry" />
        </mxCell>
        <mxCell id="qYgBSLJ2pyyqtFKy0n8X-97" value="user is greeted" style="rounded=1;whiteSpace=wrap;html=1;fillColor=#d5e8d4;strokeColor=#82b366;" vertex="1" parent="1">
          <mxGeometry x="100" y="160" width="120" height="60" as="geometry" />
        </mxCell>
        <mxCell id="qYgBSLJ2pyyqtFKy0n8X-101" value="" style="edgeStyle=orthogonalEdgeStyle;rounded=0;orthogonalLoop=1;jettySize=auto;html=1;" edge="1" parent="1" source="qYgBSLJ2pyyqtFKy0n8X-98" target="qYgBSLJ2pyyqtFKy0n8X-100">
          <mxGeometry relative="1" as="geometry" />
        </mxCell>
        <mxCell id="qYgBSLJ2pyyqtFKy0n8X-98" value="data paths provided" style="rounded=0;whiteSpace=wrap;html=1;fillColor=#fff2cc;strokeColor=#d6b656;" vertex="1" parent="1">
          <mxGeometry x="100" y="290" width="120" height="60" as="geometry" />
        </mxCell>
        <mxCell id="qYgBSLJ2pyyqtFKy0n8X-99" value="" style="endArrow=classic;html=1;exitX=0.4;exitY=1;exitDx=0;exitDy=0;exitPerimeter=0;" edge="1" parent="1" source="qYgBSLJ2pyyqtFKy0n8X-97" target="qYgBSLJ2pyyqtFKy0n8X-98">
          <mxGeometry width="50" height="50" relative="1" as="geometry">
            <mxPoint x="380" y="390" as="sourcePoint" />
            <mxPoint x="430" y="340" as="targetPoint" />
          </mxGeometry>
        </mxCell>
        <mxCell id="qYgBSLJ2pyyqtFKy0n8X-103" value="" style="edgeStyle=orthogonalEdgeStyle;rounded=0;orthogonalLoop=1;jettySize=auto;html=1;" edge="1" parent="1" source="qYgBSLJ2pyyqtFKy0n8X-100">
          <mxGeometry relative="1" as="geometry">
            <mxPoint x="480" y="320" as="targetPoint" />
          </mxGeometry>
        </mxCell>
        <mxCell id="qYgBSLJ2pyyqtFKy0n8X-100" value="User provides input" style="rounded=1;whiteSpace=wrap;html=1;fillColor=#d5e8d4;strokeColor=#82b366;" vertex="1" parent="1">
          <mxGeometry x="270" y="290" width="120" height="60" as="geometry" />
        </mxCell>
        <mxCell id="qYgBSLJ2pyyqtFKy0n8X-106" value="" style="edgeStyle=orthogonalEdgeStyle;rounded=0;orthogonalLoop=1;jettySize=auto;html=1;" edge="1" parent="1" source="qYgBSLJ2pyyqtFKy0n8X-104" target="qYgBSLJ2pyyqtFKy0n8X-105">
          <mxGeometry relative="1" as="geometry" />
        </mxCell>
        <mxCell id="qYgBSLJ2pyyqtFKy0n8X-104" value="selected data returned" style="rounded=0;whiteSpace=wrap;html=1;fillColor=#fff2cc;strokeColor=#d6b656;" vertex="1" parent="1">
          <mxGeometry x="480" y="290" width="120" height="60" as="geometry" />
        </mxCell>
        <mxCell id="qYgBSLJ2pyyqtFKy0n8X-105" value="user provides new path or exits" style="ellipse;whiteSpace=wrap;html=1;rounded=0;strokeColor=#82b366;fillColor=#d5e8d4;" vertex="1" parent="1">
          <mxGeometry x="480" y="140" width="120" height="80" as="geometry" />
        </mxCell>
        <mxCell id="qYgBSLJ2pyyqtFKy0n8X-107" value="" style="endArrow=classic;html=1;exitX=0.025;exitY=0.625;exitDx=0;exitDy=0;exitPerimeter=0;" edge="1" parent="1" source="qYgBSLJ2pyyqtFKy0n8X-105" target="qYgBSLJ2pyyqtFKy0n8X-100">
          <mxGeometry width="50" height="50" relative="1" as="geometry">
            <mxPoint x="380" y="370" as="sourcePoint" />
            <mxPoint x="430" y="320" as="targetPoint" />
          </mxGeometry>
        </mxCell>
        <mxCell id="qYgBSLJ2pyyqtFKy0n8X-108" value="" style="endArrow=classic;html=1;" edge="1" parent="1" source="qYgBSLJ2pyyqtFKy0n8X-105" target="qYgBSLJ2pyyqtFKy0n8X-109">
          <mxGeometry width="50" height="50" relative="1" as="geometry">
            <mxPoint x="380" y="370" as="sourcePoint" />
            <mxPoint x="660" y="120" as="targetPoint" />
          </mxGeometry>
        </mxCell>
        <mxCell id="qYgBSLJ2pyyqtFKy0n8X-109" value="exit" style="shape=process;whiteSpace=wrap;html=1;backgroundOutline=1;fillColor=#f8cecc;strokeColor=#b85450;" vertex="1" parent="1">
          <mxGeometry x="650" y="60" width="120" height="60" as="geometry" />
        </mxCell>
      </root>
    </mxGraphModel>
  </diagram>
</mxfile>
